<svg xmlns="http://www.w3.org/2000/svg" viewBox="-0.9999999859809163 -1 24.27359962463379 26.132858276367188"><g><path d="M1.07825 17.5312L6.59388 23.0547C8.01575 24.4844 9.46107 24.4922 10.8751 23.0781L19.3908 14.5547C20.7579 13.1797 20.7501 11.6641 19.3673 10.2812L13.8517 4.76562C12.4298 3.34375 10.9845 3.32031 9.56263 4.74219L1.05482 13.25C-0.374871 14.6641-0.335809 16.1094 1.07825 17.5312ZM2.07044 16.5703C1.28919 15.8047 1.297 14.9688 2.08607 14.1797L10.5001 5.76562C11.2814 4.98438 12.1095 4.98438 12.8829 5.75L18.3751 11.2422C19.1486 12.0078 19.1408 12.8516 18.3595 13.6328L9.94544 22.0469C9.172 22.8203 8.33607 22.8203 7.55482 22.0547ZM11.9767 14.2969C13.1329 14.2969 14.0704 13.3594 14.0704 12.1953C14.0704 11.0469 13.1329 10.1094 11.9767 10.1094C10.8204 10.1094 9.87513 11.0469 9.87513 12.1953C9.87513 13.3594 10.8204 14.2969 11.9767 14.2969ZM11.9767 13.3281C11.3517 13.3281 10.8517 12.8203 10.8517 12.1953C10.8517 11.5859 11.3517 11.0781 11.9767 11.0781C12.5939 11.0781 13.1017 11.5859 13.1017 12.1953C13.1017 12.8203 12.5939 13.3281 11.9767 13.3281ZM11.4533 10.75L12.5079 10.75L12.5079 3.25C12.5079 1.3125 11.2423 0 9.38294 0C7.52357 0 6.25794 1.3125 6.25794 3.25L6.25794 8.80469L7.32044 7.75L7.32044 3.25C7.32044 1.96094 8.15638 1.09375 9.38294 1.09375C10.6095 1.09375 11.4533 1.96094 11.4533 3.25ZM16.0704 7.67969L19.7892 11.6094L19.7892 13.2422L18.5861 14.6328L18.5861 22.9922C18.5861 23.8672 19.6173 23.9766 19.9923 23.3516L21.7736 20.3203C22.1642 19.6719 22.2736 19.3125 22.2736 18.2891L22.2736 12.25C22.2736 11.3281 22.0783 10.4219 21.3439 9.6875L18.6564 6.99219C18.0783 6.42188 17.2892 6.45312 16.8204 6.92188Z" fill="currentColor" /></g></svg>