<svg xmlns="http://www.w3.org/2000/svg" viewBox="0.24754071235656738 0.2519242763519287 25.268358945846558 21.79798126220703"><g><path d="M17.6253 19.8419C17.6253 20.2169 17.305 20.5294 16.93 20.5294L12.0078 20.5294L13.3895 19.1466L16.93 19.1466C17.305 19.1466 17.6253 19.4591 17.6253 19.8419Z" fill="currentColor" /><path d="M24.5159 19.8419C24.5159 20.2169 24.2034 20.5294 23.8284 20.5294L19.68 20.5294C19.305 20.5294 18.9847 20.2169 18.9847 19.8419C18.9847 19.4591 19.305 19.1466 19.68 19.1466L23.8284 19.1466C24.2034 19.1466 24.5159 19.4591 24.5159 19.8419Z" fill="currentColor" /><path d="M2.32843 15.9903L6.30499 19.9591C7.71905 21.3653 9.35968 21.42 10.6956 20.0762L20.4144 10.3497C21.2659 9.51375 21.2581 8.295 20.3909 7.43562L14.8519 1.91219C13.9925 1.045 12.7894 1.02937 11.9378 1.88094L2.21905 11.5997C0.883114 12.9434 0.929989 14.5841 2.32843 15.9903ZM3.30499 15.0137C2.53155 14.2247 2.49249 13.2872 3.24249 12.5294L12.8675 2.90437C13.1722 2.59969 13.5941 2.59969 13.8831 2.89656L19.4066 8.41219C19.6956 8.70906 19.6878 9.12312 19.3987 9.42L9.75811 19.0528C9.01593 19.8028 8.07061 19.7716 7.28936 18.9825ZM3.76593 11.0372L11.2659 18.545L12.1331 17.67L4.64874 10.1856Z" fill="currentColor" /></g></svg>