<svg xmlns="http://www.w3.org/2000/svg" viewBox="-1 -0.5203749239444733 22.85542869567871 22.715673446655273"><g><path d="M13.4922 9.07812L4.25 18.3047C3.85938 18.6953 3.35938 18.8281 2.96094 18.3984C2.54688 17.9453 2.63281 17.5234 3.07031 17.0781L12.2812 7.84375L11.5156 7.08594L3.30469 15.2969C0.234375 18.3672 1.67188 17.9375 0 20.2969L0.84375 21.1953C3.13281 19.5391 2.85156 21.125 5.97656 18.0156L14.2266 9.8125ZM15.7031 10.8906L15.9609 10.6094C16.4297 10.1016 16.4609 9.51562 15.9453 9.01562L15.6406 8.71094C17.1641 7.34375 18.875 7.13281 19.9219 6.07812C21.3984 4.57812 20.9219 2.49219 19.8828 1.44531C18.8438 0.398438 16.7734-0.046875 15.25 1.40625C14.1797 2.4375 13.9844 4.16406 12.6172 5.6875L12.3125 5.38281C11.8125 4.86719 11.2266 4.89844 10.7188 5.36719L10.4375 5.625C9.82812 6.19531 9.95312 6.71875 10.4609 7.23438L14.0938 10.8672C14.6094 11.375 15.1328 11.5 15.7031 10.8906Z" fill="currentColor" /></g></svg>