<svg xmlns="http://www.w3.org/2000/svg" viewBox="-1 1.4218800067901611 22.484399795532227 22.13282012939453"><g><path d="M0 11.2734C0 15.8359 3.89844 18.3203 8.75 18.3203C9.21875 18.3203 9.6875 18.3047 10.1172 18.2656C10.8203 18.1953 10.7188 16.9219 9.83594 16.9922C9.5 17.0234 9.14844 17.0312 8.80469 17.0312C4.69531 17.0312 1.30469 15.1406 1.30469 11.2812C1.30469 6.85156 6.38281 3.73438 11.25 3.73438C15.5234 3.73438 19.1875 6.38281 19.1875 10.4219C19.1875 14.1094 15.1953 17.2969 11.4219 17.2969C10.6719 17.2969 10.1016 17 10.1016 16.4688C10.1016 15.5703 11.3984 14.9688 12.8125 14.9688C14.5859 14.9688 15.9375 16.2734 15.9375 18.0547C15.9375 19.3281 15.2031 20.5703 13.9844 21.2969C13.7344 21.4688 13.5547 21.6484 13.5547 21.9609C13.5547 22.2734 13.8047 22.5547 14.2188 22.5547C14.3984 22.5547 14.5234 22.5078 14.6875 22.3984C16.25 21.4297 17.2344 19.75 17.2344 18.0156C17.2344 15.5312 15.2656 13.6562 12.7188 13.6562C10.5625 13.6562 8.78906 14.8125 8.78906 16.5078C8.78906 17.7891 9.85938 18.5938 11.4219 18.5938C15.8906 18.5938 20.4844 14.875 20.4844 10.4141C20.4844 5.69531 16.2656 2.42188 11.2422 2.42188C5.71875 2.42188 0 6.03906 0 11.2734Z" fill="currentColor" /></g></svg>