<svg xmlns="http://www.w3.org/2000/svg" viewBox="-1 -0.9765625 20.36720085144043 20.35936164855957"><g><path d="M0 5.3125L1.38281 5.3125L1.38281 3.10156C1.38281 1.98438 1.97656 1.40625 3.07031 1.40625L5.26562 1.40625L5.26562 0.0234375L3.03906 0.0234375C1.02344 0.0234375 0 1.03125 0 3.03125ZM6.50781 1.40625L11.8516 1.40625L11.8516 0.0234375L6.50781 0.0234375ZM16.9844 5.3125L18.3672 5.3125L18.3672 3.03125C18.3672 1.03906 17.3359 0.0234375 15.3203 0.0234375L13.1016 0.0234375L13.1016 1.40625L15.2969 1.40625C16.3672 1.40625 16.9844 1.98438 16.9844 3.10156ZM16.9844 11.8438L18.3672 11.8438L18.3672 6.5625L16.9844 6.5625ZM13.1016 18.3828L15.3203 18.3828C17.3359 18.3828 18.3672 17.3672 18.3672 15.375L18.3672 13.0938L16.9844 13.0938L16.9844 15.3047C16.9844 16.4219 16.3672 17 15.2969 17L13.1016 17ZM6.50781 18.3828L11.8516 18.3828L11.8516 17L6.50781 17ZM3.03906 18.3828L5.26562 18.3828L5.26562 17L3.07031 17C1.97656 17 1.38281 16.4219 1.38281 15.3047L1.38281 13.0938L0 13.0938L0 15.375C0 17.375 1.02344 18.3828 3.03906 18.3828ZM0 11.8438L1.38281 11.8438L1.38281 6.5625L0 6.5625Z" fill="currentColor" /></g></svg>