<svg xmlns="http://www.w3.org/2000/svg" viewBox="-0.9999999338155874 -0.8569441586732864 23.844675064086914 22.29652214050293"><g><path d="M0.328232 18.2003C2.19542 20.6378 6.10948 21.1768 8.40636 19.3643C10.336 17.8565 10.7501 15.5049 9.17979 13.544C7.77354 11.7393 5.67979 11.3253 4.10948 12.5674C2.64854 13.7237 3.15636 15.294 2.31261 15.9659C1.62511 16.4971 0.875107 16.1924 0.343857 16.6299C-0.0467681 16.9503-0.171768 17.5518 0.328232 18.2003ZM2.03136 18.0049C1.85167 17.8018 1.86729 17.6065 1.98448 17.4971C2.16417 17.3253 2.77354 17.3643 3.24229 16.8956C4.19542 15.9503 3.85948 14.5831 4.93761 13.7081C5.88292 12.9112 7.25792 13.1768 8.17198 14.294C9.26573 15.6143 8.92979 17.2237 7.60948 18.3018C6.07042 19.5909 3.48448 19.5674 2.03136 18.0049ZM9.87511 15.7237C10.9532 15.6221 11.8282 15.1143 12.8439 14.0987C16.0079 10.9268 21.0548 3.62994 21.4923 3.00494C22.672 1.33307 20.6485-0.674745 18.9767 0.489317C18.3595 0.926817 11.047 5.95025 7.88292 9.13775C6.88292 10.1456 6.37511 11.0128 6.25792 12.0753L7.62511 12.4346C7.63292 11.6768 8.03136 10.9346 8.85948 10.1143C12.0314 6.9815 19.1564 2.05182 19.6407 1.69244C20.1017 1.3565 20.6173 1.86432 20.2814 2.34869C19.9767 2.794 14.9532 10.0284 11.8595 13.1221C11.0001 13.9815 10.3595 14.294 9.64073 14.3487ZM11.8048 13.3721L12.922 13.0987C12.7657 11.1768 10.836 9.2315 8.95323 9.05963L8.59386 10.1768C9.96104 10.1924 11.7657 11.9971 11.8048 13.3721Z" fill="currentColor" /></g></svg>