<svg xmlns="http://www.w3.org/2000/svg" viewBox="-0.63 0.93 25.22 22.66">
                        <path fill="currentColor" d="M9.53,16.16c-0.01,0-0.02,0-0.03,0c-0.85,0-1.69-0.06-2.49-0.18L7.31,14c0.7,0.11,1.49,0.15,2.22,0.16 c0.5,0,1.01-0.02,1.53-0.07l0.18,1.99C10.66,16.13,10.09,16.16,9.53,16.16z M13.32,15.78l-0.38-1.96c1.28-0.25,2.49-0.62,3.61-1.11 l0.79,1.84C16.09,15.09,14.74,15.5,13.32,15.78z M4.9,15.49c-1.71-0.56-3.02-1.46-3.78-2.58l1.66-1.12c0.51,0.75,1.46,1.38,2.74,1.8 L4.9,15.49z M19.24,13.58l-1.03-1.72c1.17-0.7,2.09-1.51,2.68-2.34l1.63,1.15C21.78,11.73,20.65,12.74,19.24,13.58z M0.45,11.28 c-0.05-0.27-0.08-0.54-0.08-0.82c0-1.24,0.53-2.51,1.55-3.68l1.51,1.31c-0.69,0.8-1.06,1.62-1.06,2.37c0,0.15,0.01,0.29,0.04,0.44 L0.45,11.28z M23.51,8.49l-1.96-0.39c0.03-0.16,0.05-0.32,0.05-0.48c0-0.15-0.01-0.29-0.04-0.44c-0.12-0.6-0.48-1.15-1.07-1.62 L21.74,4c0.95,0.77,1.57,1.74,1.77,2.8c0.05,0.27,0.08,0.54,0.08,0.82C23.59,7.9,23.56,8.2,23.51,8.49z M4.74,6.88l-1.2-1.6 C4.6,4.49,5.87,3.8,7.29,3.25l0.72,1.87C6.76,5.6,5.66,6.2,4.74,6.88z M19.01,4.7c-1-0.41-2.24-0.67-3.58-0.76l0.12-2 c1.58,0.1,2.99,0.4,4.21,0.9L19.01,4.7z M9.81,4.54L9.29,2.6c0.45-0.12,0.91-0.22,1.38-0.32c0.93-0.18,1.86-0.3,2.77-0.35l0.11,2 c-0.82,0.04-1.66,0.15-2.5,0.31C10.63,4.33,10.21,4.43,9.81,4.54z"/><path fill="currentColor" d="M6,17.93c-0.56,0-1.11-0.17-1.59-0.49c-0.63-0.43-1.06-1.07-1.2-1.82c-0.3-1.54,0.71-3.04,2.25-3.34 c1.54-0.3,3.04,0.71,3.34,2.25c0.15,0.75-0.01,1.51-0.43,2.14c-0.43,0.63-1.07,1.06-1.82,1.2C6.37,17.91,6.19,17.93,6,17.93z M6.01,14.23c-0.05,0-0.11,0-0.16,0.02c-0.46,0.09-0.76,0.54-0.67,1c0.04,0.22,0.17,0.42,0.36,0.54c0.19,0.13,0.41,0.17,0.64,0.13 c0.22-0.04,0.42-0.17,0.54-0.36c0.13-0.19,0.17-0.41,0.13-0.64C6.77,14.51,6.41,14.23,6.01,14.23z"/><path fill="currentColor" d="M6.02,22.59l-0.38-1.96c0.6-0.12,0.99-0.36,1.2-0.75c0.49-0.9,0.06-2.44-0.15-2.96l1.85-0.75c0.11,0.28,1.08,2.77,0.06,4.66 C8.25,21.47,7.52,22.3,6.02,22.59z"/>
                    </svg>
