<svg xmlns="http://www.w3.org/2000/svg" viewBox="-0.9999999676628484 -0.9999749825383333 24.800872802734375 24.90245819091797"><g><path d="M8.44347 5.00589L14.3575 5.00589C15.1544 5.00589 15.5997 4.17776 15.0216 3.55276L12.0919 0.318386C11.7013-0.111301 11.0997-0.103489 10.7091 0.326199L7.78722 3.55276C7.20128 4.17776 7.64659 5.00589 8.44347 5.00589ZM17.8028 8.49807L17.8028 14.4121C17.8028 15.209 18.631 15.6543 19.2482 15.0762L22.4747 12.1543C22.9044 11.7559 22.9122 11.1621 22.4825 10.7637L19.2482 7.83401C18.631 7.25589 17.8028 7.7012 17.8028 8.49807ZM14.3575 17.9043L8.44347 17.9043C7.64659 17.9043 7.20128 18.7324 7.78722 19.3496L10.7169 22.584C11.1153 23.0215 11.7169 22.9981 12.0997 22.5762L15.0216 19.3496C15.5997 18.7324 15.1544 17.9043 14.3575 17.9043ZM4.99815 14.4121L4.99815 8.49807C4.99815 7.7012 4.17003 7.25589 3.55284 7.83401L0.326278 10.7559C-0.0955966 11.1465-0.119034 11.7403 0.318466 12.1465L3.55284 15.0762C4.17003 15.6543 4.99815 15.209 4.99815 14.4121ZM11.4044 20.1309C11.8263 20.1309 12.17 19.7871 12.17 19.3731L12.17 3.54495C12.17 3.13089 11.8263 2.78714 11.4044 2.78714C10.9903 2.78714 10.6466 3.13089 10.6466 3.54495L10.6466 19.3731C10.6466 19.7871 10.9903 20.1309 11.4044 20.1309ZM2.74034 11.4512C2.74034 11.8731 3.08409 12.2168 3.50597 12.2168L19.3263 12.2168C19.7403 12.2168 20.0919 11.8731 20.0919 11.4512C20.0919 11.0293 19.7403 10.6856 19.3263 10.6856L3.50597 10.6856C3.08409 10.6856 2.74034 11.0293 2.74034 11.4512Z" fill="#000000" stroke="none"/></g></svg>